{
	"asset":{
		"generator":"Khronos glTF Blender I/O v3.6.28",
		"version":"2.0"
	},
	"extensionsUsed":[
		"KHR_materials_specular",
		"KHR_materials_ior"
	],
	"scene":0,
	"scenes":[
		{
			"name":"Scene",
			"nodes":[
				0
			]
		}
	],
	"nodes":[
		{
			"mesh":0,
			"name":"AFS_racecar.001_Plane.015"
		}
	],
	"materials":[
		{
			"doubleSided":true,
			"extensions":{
				"KHR_materials_specular":{
					"specularColorFactor":[
						0.948543059910952,
						0.948543059910952,
						0.948543059910952
					]
				},
				"KHR_materials_ior":{
					"ior":1.4500000476837158
				}
			},
			"name":"body",
			"pbrMetallicRoughness":{
				"baseColorTexture":{
					"index":0
				},
				"metallicFactor":0,
				"roughnessFactor":0.800000011920929
			}
		},
		{
			"doubleSided":true,
			"extensions":{
				"KHR_materials_specular":{
					"specularColorFactor":[
						0.14228145368624548,
						0.14228145368624548,
						0.14228145368624548
					]
				},
				"KHR_materials_ior":{
					"ior":1.4500000476837158
				}
			},
			"name":"shield.001",
			"pbrMetallicRoughness":{
				"baseColorFactor":[
					0.10999999940395355,
					0.10999999940395355,
					0.10999999940395355,
					1
				],
				"metallicFactor":0,
				"roughnessFactor":0.8585786819458008
			}
		},
		{
			"doubleSided":true,
			"extensions":{
				"KHR_materials_specular":{
					"specularColorFactor":[
						1.897086119821904,
						1.897086119821904,
						1.897086119821904
					]
				},
				"KHR_materials_ior":{
					"ior":1.4500000476837158
				}
			},
			"name":"alu.001",
			"pbrMetallicRoughness":{
				"baseColorFactor":[
					0.800000011920929,
					0.800000011920929,
					0.800000011920929,
					1
				],
				"metallicFactor":0,
				"roughnessFactor":0.2254033088684082
			}
		},
		{
			"doubleSided":true,
			"extensions":{
				"KHR_materials_specular":{
					"specularColorFactor":[
						1.802231764360434,
						1.802231764360434,
						1.802231764360434
					]
				},
				"KHR_materials_ior":{
					"ior":1.4500000476837158
				}
			},
			"name":"alu_grey",
			"pbrMetallicRoughness":{
				"baseColorFactor":[
					0.20000000298023224,
					0.20000000298023224,
					0.20000000298023224,
					1
				],
				"metallicFactor":0,
				"roughnessFactor":0.0780455470085144
			}
		},
		{
			"doubleSided":true,
			"extensions":{
				"KHR_materials_specular":{
					"specularColorFactor":[
						1.897086119821904,
						1.897086119821904,
						1.897086119821904
					]
				},
				"KHR_materials_ior":{
					"ior":1.4500000476837158
				}
			},
			"name":"glass_black",
			"pbrMetallicRoughness":{
				"baseColorFactor":[
					0.05000000074505806,
					0.05000000074505806,
					0.05000000074505806,
					1
				],
				"metallicFactor":0,
				"roughnessFactor":0.16333997249603271
			}
		},
		{
			"doubleSided":true,
			"emissiveFactor":[
				0.6000000238418579,
				0.6000000238418579,
				0.6000000238418579
			],
			"extensions":{
				"KHR_materials_specular":{
					"specularColorFactor":[
						0.711407312601205,
						0.711407312601205,
						0.711407312601205
					]
				},
				"KHR_materials_ior":{
					"ior":1.4500000476837158
				}
			},
			"name":"lights",
			"pbrMetallicRoughness":{
				"baseColorTexture":{
					"index":1
				},
				"metallicFactor":0,
				"roughnessFactor":0.6837722063064575
			}
		}
	],
	"meshes":[
		{
			"name":"AFS_racecar.001_Plane.015",
			"primitives":[
				{
					"attributes":{
						"POSITION":0,
						"NORMAL":1,
						"TEXCOORD_0":2
					},
					"indices":3,
					"material":0
				},
				{
					"attributes":{
						"POSITION":4,
						"NORMAL":5,
						"TEXCOORD_0":6
					},
					"indices":7,
					"material":1
				},
				{
					"attributes":{
						"POSITION":8,
						"NORMAL":9,
						"TEXCOORD_0":10
					},
					"indices":11,
					"material":2
				},
				{
					"attributes":{
						"POSITION":12,
						"NORMAL":13,
						"TEXCOORD_0":14
					},
					"indices":15,
					"material":3
				},
				{
					"attributes":{
						"POSITION":16,
						"NORMAL":17,
						"TEXCOORD_0":18
					},
					"indices":19,
					"material":4
				},
				{
					"attributes":{
						"POSITION":20,
						"NORMAL":21,
						"TEXCOORD_0":22
					},
					"indices":23,
					"material":5
				}
			]
		}
	],
	"textures":[
		{
			"sampler":0,
			"source":0
		},
		{
			"sampler":0,
			"source":0
		}
	],
	"images":[
		{
			"bufferView":4,
			"mimeType":"image/jpeg",
			"name":"AFS_RaceCar"
		}
	],
	"accessors":[
		{
			"bufferView":0,
			"componentType":5126,
			"count":3133,
			"max":[
				2.815256118774414,
				0.6635907292366028,
				0.320645809173584
			],
			"min":[
				-6.70000008540228e-05,
				0.04576900601387024,
				-0.31965672969818115
			],
			"type":"VEC3"
		},
		{
			"bufferView":1,
			"componentType":5126,
			"count":3133,
			"type":"VEC3"
		},
		{
			"bufferView":2,
			"componentType":5126,
			"count":3133,
			"type":"VEC2"
		},
		{
			"bufferView":3,
			"componentType":5123,
			"count":13800,
			"type":"SCALAR"
		},
		{
			"bufferView":5,
			"componentType":5126,
			"count":948,
			"max":[
				2.921333074569702,
				0.7847211360931396,
				0.16133473813533783
			],
			"min":[
				0.3971270024776459,
				0.09400662779808044,
				-0.161534383893013
			],
			"type":"VEC3"
		},
		{
			"bufferView":6,
			"componentType":5126,
			"count":948,
			"type":"VEC3"
		},
		{
			"bufferView":7,
			"componentType":5126,
			"count":948,
			"type":"VEC2"
		},
		{
			"bufferView":8,
			"componentType":5123,
			"count":2856,
			"type":"SCALAR"
		},
		{
			"bufferView":9,
			"componentType":5126,
			"count":3248,
			"max":[
				2.2378249168395996,
				0.3840230703353882,
				0.5567921996116638
			],
			"min":[
				0.416577011346817,
				0.05077578127384186,
				-0.5578763484954834
			],
			"type":"VEC3"
		},
		{
			"bufferView":10,
			"componentType":5126,
			"count":3248,
			"type":"VEC3"
		},
		{
			"bufferView":11,
			"componentType":5126,
			"count":3248,
			"type":"VEC2"
		},
		{
			"bufferView":12,
			"componentType":5123,
			"count":10560,
			"type":"SCALAR"
		},
		{
			"bufferView":13,
			"componentType":5126,
			"count":3668,
			"max":[
				2.9193410873413086,
				0.7076508402824402,
				0.49908486008644104
			],
			"min":[
				0.4943940043449402,
				0.1615414023399353,
				-0.5003990530967712
			],
			"type":"VEC3"
		},
		{
			"bufferView":14,
			"componentType":5126,
			"count":3668,
			"type":"VEC3"
		},
		{
			"bufferView":15,
			"componentType":5126,
			"count":3668,
			"type":"VEC2"
		},
		{
			"bufferView":16,
			"componentType":5123,
			"count":10560,
			"type":"SCALAR"
		},
		{
			"bufferView":17,
			"componentType":5126,
			"count":34,
			"max":[
				2.9193410873413086,
				0.22217659652233124,
				0.04915322735905647
			],
			"min":[
				2.8192319869995117,
				0.1827414184808731,
				-0.051056768745183945
			],
			"type":"VEC3"
		},
		{
			"bufferView":18,
			"componentType":5126,
			"count":34,
			"type":"VEC3"
		},
		{
			"bufferView":19,
			"componentType":5126,
			"count":34,
			"type":"VEC2"
		},
		{
			"bufferView":20,
			"componentType":5123,
			"count":96,
			"type":"SCALAR"
		},
		{
			"bufferView":21,
			"componentType":5126,
			"count":34,
			"max":[
				1.4547100067138672,
				0.698077380657196,
				0.052034296095371246
			],
			"min":[
				1.353611946105957,
				0.6674654483795166,
				-0.04871450364589691
			],
			"type":"VEC3"
		},
		{
			"bufferView":22,
			"componentType":5126,
			"count":34,
			"type":"VEC3"
		},
		{
			"bufferView":23,
			"componentType":5126,
			"count":34,
			"type":"VEC2"
		},
		{
			"bufferView":24,
			"componentType":5123,
			"count":96,
			"type":"SCALAR"
		}
	],
	"bufferViews":[
		{
			"buffer":0,
			"byteLength":37596,
			"byteOffset":0,
			"target":34962
		},
		{
			"buffer":0,
			"byteLength":37596,
			"byteOffset":37596,
			"target":34962
		},
		{
			"buffer":0,
			"byteLength":25064,
			"byteOffset":75192,
			"target":34962
		},
		{
			"buffer":0,
			"byteLength":27600,
			"byteOffset":100256,
			"target":34963
		},
		{
			"buffer":0,
			"byteLength":1033123,
			"byteOffset":127856
		},
		{
			"buffer":0,
			"byteLength":11376,
			"byteOffset":1160980,
			"target":34962
		},
		{
			"buffer":0,
			"byteLength":11376,
			"byteOffset":1172356,
			"target":34962
		},
		{
			"buffer":0,
			"byteLength":7584,
			"byteOffset":1183732,
			"target":34962
		},
		{
			"buffer":0,
			"byteLength":5712,
			"byteOffset":1191316,
			"target":34963
		},
		{
			"buffer":0,
			"byteLength":38976,
			"byteOffset":1197028,
			"target":34962
		},
		{
			"buffer":0,
			"byteLength":38976,
			"byteOffset":1236004,
			"target":34962
		},
		{
			"buffer":0,
			"byteLength":25984,
			"byteOffset":1274980,
			"target":34962
		},
		{
			"buffer":0,
			"byteLength":21120,
			"byteOffset":1300964,
			"target":34963
		},
		{
			"buffer":0,
			"byteLength":44016,
			"byteOffset":1322084,
			"target":34962
		},
		{
			"buffer":0,
			"byteLength":44016,
			"byteOffset":1366100,
			"target":34962
		},
		{
			"buffer":0,
			"byteLength":29344,
			"byteOffset":1410116,
			"target":34962
		},
		{
			"buffer":0,
			"byteLength":21120,
			"byteOffset":1439460,
			"target":34963
		},
		{
			"buffer":0,
			"byteLength":408,
			"byteOffset":1460580,
			"target":34962
		},
		{
			"buffer":0,
			"byteLength":408,
			"byteOffset":1460988,
			"target":34962
		},
		{
			"buffer":0,
			"byteLength":272,
			"byteOffset":1461396,
			"target":34962
		},
		{
			"buffer":0,
			"byteLength":192,
			"byteOffset":1461668,
			"target":34963
		},
		{
			"buffer":0,
			"byteLength":408,
			"byteOffset":1461860,
			"target":34962
		},
		{
			"buffer":0,
			"byteLength":408,
			"byteOffset":1462268,
			"target":34962
		},
		{
			"buffer":0,
			"byteLength":272,
			"byteOffset":1462676,
			"target":34962
		},
		{
			"buffer":0,
			"byteLength":192,
			"byteOffset":1462948,
			"target":34963
		}
	],
	"samplers":[
		{
			"magFilter":9729,
			"minFilter":9987
		}
	],
	"buffers":[
		{
			"byteLength":1463140,
			"uri":"data:application/octet-stream;base64,"
		}
	]
}
